<svg width="48" height="48" viewBox="0 0 48 48" fill="none" xmlns="http://www.w3.org/2000/svg">
<path fill-rule="evenodd" clip-rule="evenodd" d="M1.41019 20.3664C3.64452 12.5743 9.83667 7.38181 15.7629 7.9867C11.094 15.6723 10.9073 18.9205 10.7023 22.4867C10.505 25.9199 10.2908 29.6478 6.04362 37.9138C1.37871 34.8724 -0.683071 27.6664 1.41019 20.3664ZM13.1431 30.5497C11.9749 32.9741 10.3178 35.7112 7.95907 38.8682C8.14806 38.9362 8.34011 38.9983 8.53513 39.0542C14.9058 40.881 22.0448 35.4759 24.4805 26.9817C26.8529 18.7079 23.8881 10.5551 17.8452 8.44921C16.7844 10.5847 16.3757 12.4971 16.1952 14.4C16.1951 14.4001 16.1951 14.4001 16.1951 14.4001C16.0966 15.4386 16.0661 16.4742 16.0346 17.5417C15.9297 21.097 15.8145 25.0057 13.1431 30.5496C13.1431 30.5496 13.1431 30.5497 13.1431 30.5497ZM22.451 8.93057C23.5684 9.9514 24.5014 11.1851 25.2388 12.559C25.8871 11.2238 26.7113 9.7178 27.7629 7.98671C25.978 7.80451 24.1689 8.14826 22.451 8.93057ZM26.353 27.7048C25.511 30.5597 24.1728 33.1171 22.4958 35.2289C21.7561 36.3778 20.9152 37.5885 19.9591 38.8682C20.1481 38.9362 20.3401 38.9983 20.5351 39.0542C26.9058 40.881 34.0448 35.4759 36.4805 26.9817C38.8529 18.7079 35.8881 10.5551 29.8453 8.44922C29.3212 9.50419 28.9562 10.5047 28.6993 11.4766L28.6992 11.4767C28.1524 13.5456 28.0952 15.4845 28.0346 17.5417C27.9486 20.4564 27.8556 23.6087 26.353 27.7048ZM33.8329 8.40293C34.7004 9.09383 35.4698 9.90619 36.1368 10.8113C36.6075 9.93993 37.1461 9.00204 37.7629 7.98671C36.4507 7.85277 35.1254 8.00308 33.8329 8.40293ZM31.1906 38.4828C30.942 38.671 30.6891 38.8516 30.4321 39.024C30.4664 39.0343 30.5007 39.0443 30.5351 39.0542C36.9058 40.881 44.0448 35.4759 46.4804 26.9817C48.8529 18.7079 45.888 10.5551 39.8452 8.44922C38.738 10.6779 38.3412 12.6637 38.1728 14.6492L38.2004 14.7255C39.5549 18.4905 39.6944 23.029 38.4029 27.5329C37.0773 32.1558 34.4531 36.0128 31.1906 38.4828Z" fill="#D9D9D9"/>
</svg>
