<svg width="48" height="48" viewBox="0 0 48 48" fill="none" xmlns="http://www.w3.org/2000/svg">
<path fill-rule="evenodd" clip-rule="evenodd" d="M4.41019 20.3664C6.64452 12.5743 12.8367 7.38181 18.7629 7.9867C14.094 15.6723 13.9073 18.9205 13.7023 22.4867C13.505 25.9199 13.2908 29.6478 9.04362 37.9138C4.37871 34.8724 2.31693 27.6664 4.41019 20.3664ZM17.6131 26.9642C16.5255 30.2079 14.5599 34.0488 10.9591 38.8682C11.1481 38.9362 11.3401 38.9983 11.5351 39.0542C17.9058 40.881 25.0448 35.4759 27.4805 26.9817C29.8529 18.7079 26.8881 10.5551 20.8452 8.44921C19.2054 11.7501 19.1238 14.5181 19.0346 17.5417C19.0244 17.8898 19.014 18.2413 19.0011 18.5974C19.0011 18.5975 19.0011 18.5976 19.0011 18.5977C18.9128 21.0408 18.7074 23.7 17.6131 26.964C17.6131 26.9641 17.6131 26.9641 17.6131 26.9642ZM23.0436 37.9138C23.0169 37.8964 22.9904 37.8789 22.9639 37.8612C23.0279 37.8067 23.0917 37.7516 23.1551 37.6959C23.1183 37.7682 23.0811 37.8408 23.0436 37.9138ZM32.7629 7.98671C31.0691 10.7749 29.9652 12.9791 29.2363 14.8263C29.2245 14.7926 29.2125 14.759 29.2004 14.7255C28.5077 12.8 27.4821 11.0461 26.1471 9.61889C28.2377 8.3596 30.5193 7.7577 32.7629 7.98671ZM24.959 38.8682C32.7117 28.4919 32.8839 22.6518 33.0346 17.5417C33.1238 14.5181 33.2054 11.7501 34.8452 8.44922C40.888 10.5551 43.8529 18.7079 41.4804 26.9817C39.0448 35.4759 31.9058 40.881 25.5351 39.0542C25.3401 38.9983 25.148 38.9362 24.959 38.8682Z" fill="#D9D9D9"/>
</svg>
