<svg width="48" height="48" viewBox="0 0 48 48" fill="none" xmlns="http://www.w3.org/2000/svg">
<path fill-rule="evenodd" clip-rule="evenodd" d="M26.8196 8.29859C20.8933 7.69369 14.7012 12.8862 12.4668 20.6782C10.3736 27.9783 12.4353 35.1843 17.1002 38.2257C21.3474 29.9597 21.5616 26.2318 21.759 22.7985C21.9639 19.2324 22.1506 15.9842 26.8196 8.29859ZM19.0157 39.1801C26.7683 28.8038 26.9406 22.9637 27.0913 17.8535C27.1804 14.83 27.262 12.062 28.9019 8.7611C34.9447 10.867 37.9095 19.0198 35.5371 27.2935C33.1014 35.7878 25.9624 41.1928 19.5918 39.3661C19.3967 39.3102 19.2047 39.2481 19.0157 39.1801Z" fill="#D9D9D9"/>
</svg>
